# xmcd
#
# Track frame offsets:
#	150
#	10910
#	17839
#	25385
#	33385
#	47495
#	54790
#	82611
#	97161
#	122782
#	131810
#	142303
#	153867
#
# Disc length: 2222 seconds
#
# Revision: 0
# Processed by: cddbd v1.5.2PL0 Copyright (c) Steve Scherf et al.
# Submitted via: EasyCDDAExtractor 12.0.7.1
#
DISCID=a308ac0d
DTITLE=Владимир Высоцкий - Вот и сбывается, все, что пророчится ...
DYEAR=2012
DGENRE=Chanson
TTITLE0=Песня Бродского (Песня к кинофильму "Интервенция")
TTITLE1=Песня бандитов (Песня к кинофильму "Интервенция")
TTITLE2=Песня Рябого (Песня к кинофильму "Хозяин тайги")
TTITLE3=Куплеты Бенгальского (Песня к кинофильму "Опасные гастроли")
TTITLE4=Романс (Песня к кинофильму "Опасные гастроли")
TTITLE5=Цыганская песня (Песня к кинофильму "Опасные гастроли")
TTITLE6=Баллада о манекенах (Песня к кинофильму ''Бегство мистера Мак-Кинли'')
TTITLE7=Баллада об уходе в рай (Песня к кинофильму Бегство мистера Мак-Кинли)
TTITLE8=Скоморохи на ярмарке (Песня к кинофильму Иван да Марья)
TTITLE9=Оплавляются свечи (Песня к кинофильму ''Дела давно минувших дне'')
TTITLE10=Приговоренные к жизни (Песня к кинофильму Единственная дорога)
TTITLE11=Песня Вани у Марии (Песня к кинофильму "Одиножды один")
TTITLE12=Баллада о борьбе (Песня к кинофильму "Стрелы Робин Гуда")
EXTD=
EXTT0=
EXTT1=
EXTT2=
EXTT3=
EXTT4=
EXTT5=
EXTT6=
EXTT7=
EXTT8=
EXTT9=
EXTT10=
EXTT11=
EXTT12=
PLAYORDER=
